<svg xmlns="http://www.w3.org/2000/svg" width="440" height="440" viewBox="0 0 440 440"><g transform="matrix(.125 0 0 -.125 -98.285 474.197)"><circle cx="2546.2803" cy="-2033.5739" r="1760" style="fill:#fff;stroke-width:8;fill-opacity:1" transform="scale(1 -1)"/><path fill="#9c5e31" d="M2546.956 3633.574c-884.267 0-1600.676-717.03-1600.676-1599.979 0-883.41 716.41-1600.021 1600.676-1600.021 883.255 0 1599.324 716.612 1599.324 1600.021 0 882.95-716.069 1599.979-1599.324 1599.979"/><path fill="#fff" d="M3420.87 2033.595c0-482.963-391.637-874.361-874.547-874.361-483.285 0-874.544 391.398-874.544 874.361 0 482.963 391.26 874.36 874.544 874.36 482.91 0 874.548-391.397 874.548-874.36"/><path d="M2561.111 2293.633v-170.735h292.27v-224.855h-292.27v-402.326H2295.32v1023.65h588.143v-225.734h-322.35"/></g></svg>