<svg xmlns="http://www.w3.org/2000/svg" width="440" height="440" viewBox="0 0 440 440"><g transform="matrix(.125 0 0 -.125 -98.285 474.197)"><circle cx="2546.2803" cy="-2033.5739" r="1760" style="fill:#fff;stroke-width:8;fill-opacity:1" transform="scale(1 -1)"/><path fill="#f62e36" d="M2546.467 3633.574c-883.618 0-1600.187-716.839-1600.187-1600.054 0-883.86 716.57-1599.946 1600.187-1599.946 883.625 0 1599.813 716.085 1599.813 1599.946 0 883.215-716.188 1600.054-1599.813 1600.054"/><path fill="#fff" d="M3420.76 2033.52c0-483.202-391.835-874.606-874.293-874.606-483.792 0-874.536 391.404-874.536 874.606 0 482.556 390.744 874.068 874.536 874.068 482.458 0 874.292-391.512 874.292-874.068"/><path d="M2087.314 2545.67h262.289l207.252-547.449 220.545 547.45h264.765l154.486-1022.903h-266.164l-74.843 588.344h-2.518l-245.81-588.344h-105.875l-234.797 588.344h-2.476l-85.52-588.344h-264.609l173.275 1022.903"/></g></svg>