<svg width="1440" height="1072" viewBox="0 0 1440 1072" fill="none" xmlns="http://www.w3.org/2000/svg">
<rect x="0.5" y="0.5" width="1439" height="1071" fill="#FF0000" stroke="white"/>
<path d="M997 214.6V162.8C979.4 181.2 954 197.8 919.8 213.2C917.8 214.2 915.4 216.8 914.8 218.4L914.2 218.2C914.6 216.6 914.6 213 913.6 211C912.6 209 910 206.6 908.4 206L908.6 205.2C909.4 205.4 910.6 205.6 911.8 205.6C913.2 205.6 914.8 205.4 915.8 205C949.4 190.2 974.4 174 991.6 156.6H936.8C934.4 156.6 931.2 158 930 159.2L929.4 158.6C930.6 157.4 932 154.2 932 151.8V89.4C932 86.6 930.2 82.2 928.8 80.6L929.2 80.2C930.8 81.6 935.2 83.4 938 83.4H997V67.4H917.6C915.6 67.4 912.6 68.8 911.6 69.8L911 69.2C912 68.2 913.4 65.2 913.4 63.2C913.4 61.4 912 58.4 911 57.4L911.6 56.8C912.6 57.8 915.6 59.2 917.6 59.2H997V45.4C997 43 995.4 39.4 994.2 38.2L994.8 37.6C996 38.8 999.6 40.4 1002 40.4C1004.4 40.4 1008 38.8 1009.2 37.6L1009.8 38.2C1008.6 39.4 1007 43 1007 45.4V59.2H1086.6C1088.4 59.2 1091.4 57.8 1092.4 56.8L1093 57.4C1092 58.4 1090.6 61.4 1090.6 63.2C1090.6 65.2 1092 68.2 1093 69.2L1092.4 69.8C1091.4 68.8 1088.4 67.4 1086.6 67.4H1007V83.4H1066C1068.8 83.4 1073.2 81.6 1074.8 80.2L1075.2 80.6C1073.8 82.2 1072 86.6 1072 89.4V150.6C1072 153.4 1073.8 157.8 1075.2 159.4L1074.8 159.8C1073.2 158.4 1068.8 156.6 1066 156.6H1012.4C1029.6 174 1054.6 190.2 1088.2 205C1089.2 205.4 1090.8 205.6 1092.2 205.6C1093.4 205.6 1094.6 205.4 1095.4 205.2L1095.6 206C1094 206.6 1091.4 209 1090.4 211C1089.4 213 1089.4 216.6 1089.8 218.2L1089.2 218.4C1088.6 216.8 1086.2 214.2 1084.2 213.2C1050 197.8 1024.6 181.2 1007 162.8V214.6C1007 217 1008.6 220.6 1009.8 221.8L1009.2 222.4C1008 221.2 1004.4 219.6 1002 219.6C999.6 219.6 996 221.2 994.8 222.4L994.2 221.8C995.4 220.6 997 217 997 214.6ZM941.4 115.4H997V91.4H941.4V115.4ZM1062.4 115.4V91.4H1007V115.4H1062.4ZM997 148.6V123H941.4V148.6H997ZM1007 148.6H1062.4V123H1007V148.6Z" fill="white"/>
<path d="M494.6 603H343.4V636.4C343.4 638.8 345 642.4 346.2 643.6L345.6 644.2C344.4 643 340.8 641.4 338.6 641.4C336.2 641.4 332.6 643 331.4 644.2L330.8 643.6C332 642.4 333.6 638.8 333.6 636.4V600.6C333.6 597.8 331.8 593.4 330.4 591.8L330.8 591.4C332.4 592.8 336.8 594.6 339.6 594.6H414V578.6C414 576.2 412.4 572.6 411.2 571.4L411.8 570.8C413 572 416.6 573.6 419 573.6C421.4 573.6 425 572 426.2 570.8L426.8 571.4C425.6 572.6 424 576.2 424 578.6V594.6H498.4C501.2 594.6 505.6 592.8 507.2 591.4L507.6 591.8C506.2 593.4 504.4 597.8 504.4 600.6V632.6C504.4 635 506 638.6 507.2 639.8L506.6 640.4C505.4 639.2 501.8 637.6 499.6 637.6H498.6C496.6 637.6 494 638.8 493 639.8L492.4 639.2C493.4 638.2 494.6 635.6 494.6 633.6V629.8H445.8C443.8 639 441.4 647.8 438.6 655.8H492C494.8 655.8 499.2 654 500.8 652.6L501.2 653C499.8 654.6 498 659 498 661.8V751.8C498 754 499.6 757.6 500.8 758.8L500.2 759.4C499 758.2 495.4 756.6 493.2 756.6H492.8C490.6 756.6 487.4 758 486.2 759.2L485.6 758.6C486.8 757.4 488.2 754.2 488.2 752V747.4H398V752C398 754.2 399.4 757.4 400.6 758.6L400 759.2C398.8 758 395.6 756.6 393.4 756.6H393.2C391 756.6 387.4 758 386.2 759.2L385.8 758.8C387 757.6 388.4 754 388.4 751.8V661.8C388.4 659 386.6 654.6 385.2 653L385.6 652.6C387.2 654 391.6 655.8 394.4 655.8H428.2C431.2 647.8 433.8 639 435.8 629.8H387.2C385.2 629.8 382.2 631.2 381.2 632.2L380.6 631.6C381.6 630.6 383 627.6 383 625.6C383 623.6 381.6 620.6 380.6 619.6L381.2 619C382.2 620 385.2 621.4 387.2 621.4H494.6V603ZM359.8 654.8V753.8C359.8 756 361.2 759.6 362.4 760.8L362 761.2C360.8 760 357.2 758.6 355 758.6C352.8 758.6 349.2 760 348 761.2L347.6 760.8C348.8 759.6 350.2 756 350.2 753.8V670.6C344.6 680 338 689.6 331.2 697.4C329.6 699.6 328.2 703.4 328 705.4H327.2C327.4 703.2 326.8 699.2 325.6 696.8L325.2 696.4C324.4 695 321.8 693 320.4 692.8L320.6 692C321.8 692.2 324.8 690.6 325.8 689.4C343.8 668.4 357.8 642.6 366.4 614.4C367 612.2 366.8 608.6 366 607.2L366.6 606.8C367.4 608.2 370.2 610.4 372.4 611C373 611.2 373.8 611.2 374.6 611.2C376.6 611.2 378.8 610.8 379.8 610.2L380.2 610.8C378.8 611.8 376.4 614.6 375.6 616.8C371.2 630.6 366.2 642.8 359.8 654.8ZM488.2 696.4V664.2H398V696.4H488.2ZM398 739H488.2V704.6H398V739Z" fill="white"/>
<path d="M117 902.4C114 899.4 112.2 899 107.8 899V898.2C109.4 897.8 112.8 896.2 114.4 894.4C127 879.6 137.8 861 144.8 842C145.6 840 145.4 836.4 144.6 835L145.4 834.6C146.2 836 148.8 838.2 151 838.8C151.6 839 152.4 839 153.2 839C155 839 157.2 838.6 158.4 838L158.8 838.8C157.2 839.6 154.6 842.2 153.8 844.4C152 849.4 150 854.4 147.8 859.2H223.4C225.4 859.2 228.4 857.8 229.4 856.8L230 857.4C229 858.4 227.6 861.4 227.6 863.4C227.6 865.6 229 868.6 230 869.6L229.4 870.2C228.4 869.2 225.4 867.8 223.4 867.8H143.6C137.6 879.6 130.2 890.4 122.2 899.8C120.8 901.4 119.6 905 119.8 906.6H119.2C119 905.6 118.2 904.4 117.4 903C115.8 904.8 114.2 909 114.2 911.6C114 1005.6 108.6 1014.6 95.6 1014.6C92.2 1014.6 84.6 1014 77.4 1013C75.6 1013 72.4 1013.4 71 1014.8L70.4 1014.2C71.6 1013.2 73 1010 73.2 1007.8C73.2 1005.6 71.8 1002.4 70.8 1001.2L71.4 1000.6C74.6 1005 87.4 1005.4 92.4 1005.4C99.8 1005.4 104.6 998.8 104.6 914.6H73.6C71.8 962.2 65.4 989.8 52.8 1013.4C51.6 1015.6 51.2 1019.4 51.6 1021.2L50.8 1021.4C49.6 1015.8 45.6 1012.8 40 1012.8L39.8 1012C41.2 1011.6 44.2 1009.2 45 1007.4C57.8 982.4 64.8 950 64.8 875.8H49.2C47.2 875.8 44 877.2 42.8 878.2L42.4 877.8C43.4 876.6 44.8 873.4 44.8 871.4C44.8 869.4 43.4 866.2 42.4 865L42.8 864.6C44 865.6 47.2 867 49.2 867H77.8V843.4C77.8 841.2 76.2 837.6 75 836.4L75.6 835.8C76.8 837 80.4 838.6 82.8 838.6C85 838.6 88.6 837 89.8 835.8L90.4 836.4C89.2 837.6 87.6 841.2 87.6 843.4V867H116.2C118.2 867 121.4 865.6 122.6 864.6L123 865C122 866.2 120.6 869.4 120.6 871.4C120.6 873.4 122 876.6 123 877.8L122.6 878.2C121.4 877.2 118.2 875.8 116.2 875.8H74.4C74.4 886.6 74.2 896.4 74 905.6H108.2C111 905.6 115.2 903.8 117 902.4ZM121.6 927.4L120.8 927C121.6 925.6 121.8 922.2 121.2 920.2C120.6 918.2 118.2 915.6 116.8 915L117.2 914.2C118.2 914.8 120 915 121.6 915C122.6 915 123.4 915 124 914.8C152.6 906.4 179.8 892.4 202.4 874.8C203.8 873.6 205.4 870.6 205.6 869.2L206.4 869.4C206.2 870.8 207 874 208.2 875.6C209.2 877.2 212.2 878.8 213.6 879L213.4 879.8C211.6 879.8 208.8 880.4 207.4 881.6C198 889.2 187.6 896.4 176.6 902.4C179.4 915.4 183.2 928.4 188.2 940.8C194.8 937 222.8 918.4 222.8 910.4H223.6C223.6 912 224.4 915.4 225.8 917C227 918.6 230.2 920.2 231.6 920.2V921C230.2 921 227 922 225.4 923.4C215 933.4 203.6 942 191.6 949C201.4 971.4 214.6 991.8 229.4 1007.6C231 1009.4 234.4 1010.8 236 1011V1011.8C234.4 1011.6 231 1013.2 229.4 1014.8C227.8 1016.4 226.4 1020 226.2 1021.8H225.4C225.6 1020 224.2 1016.4 222.6 1014.6C198.2 988.6 177.8 949.2 168.4 906.8C163.8 909.2 159 911.4 154.2 913.4V1013.4C154.2 1015.6 155.8 1019.2 157 1020.4L156.4 1021C155.2 1019.8 151.6 1018.2 149.4 1018.2C147 1018.2 143.4 1019.8 142.2 1021L141.6 1020.4C142.8 1019.2 144.4 1015.6 144.4 1013.4V917.2C138.6 919.4 132.8 921.4 126.8 923.2C124.8 923.8 122.2 926 121.6 927.4Z" fill="white"/>
<path d="M1328.2 612.6C1321.8 608.2 1310.4 604.6 1303.6 604.6C1303 604.6 1302.4 604.8 1301.8 604.8L1301.6 604C1307.8 603.2 1319.6 596.4 1325 590L1327 587.8C1331 583 1335.2 572.2 1334.6 567.6L1335.2 567.4C1336 572.2 1342.6 581.2 1347.8 584.8C1361.2 593.8 1373.2 603 1384.6 612.4C1390.6 617.4 1401.2 621.4 1409 621.4V622.2C1403.2 622.8 1391.4 629.2 1386 635L1384.6 636.6C1379.8 641.8 1375 653 1375.4 658.4H1374.6C1374.2 653.2 1367.6 642.4 1362.2 638C1351.6 629.4 1340.4 621 1328.2 612.6ZM1277 588.4L1278.6 589.6C1285 595 1297.8 600.2 1304.2 600V600.8C1297.8 601 1285.8 606 1279.8 611.6C1268.4 622.2 1254.8 632 1238.8 640.6C1233 643.8 1225.4 652.4 1224.2 657.2L1223.4 657C1224.6 652.2 1222 640.4 1218.6 634.8L1217.6 633C1213.6 626.4 1203.6 618.6 1198 617.2L1198.2 616.4C1199.2 616.6 1200.4 616.8 1201.8 616.8C1208.2 616.8 1218 614.4 1223.4 611.2C1235 604.4 1245.6 597 1255.4 588.8C1260 584.8 1266 574.8 1266.2 570.2H1267C1266.8 574.8 1272.4 584.4 1277 588.4ZM1268 753V757C1268 758.8 1269.2 761.8 1270.2 762.8L1269.8 763.2C1268.8 762.2 1265.8 761 1264 761H1247C1239.4 761 1227.2 765.2 1223.2 769.2L1222.8 768.8C1226.8 764.8 1231 752.6 1231 745V701.2L1225.6 704.2C1222.8 705.6 1219.6 709.4 1219 711.6L1218.2 711.4C1219 709.2 1218.8 704.2 1217.6 701.2L1212.8 690.4C1210.2 684.6 1202.4 676.2 1197.8 674.8L1198 674C1199 674.2 1200.2 674.4 1201.4 674.4C1207 674.4 1215.4 672.4 1219.8 669.8C1241 657.4 1257.2 644.8 1274.2 627.8C1275.4 626.6 1278.2 622 1277.8 620.8L1278.6 620.4C1279 621.6 1284 623 1285.8 623H1320.2C1322 623 1327 621.6 1327.4 620.4L1328.2 620.8C1327.8 622 1330.6 626.6 1331.8 627.8C1348.8 644.8 1365 657.4 1386.2 669.8C1390.6 672.4 1399 674.4 1404.6 674.4C1405.8 674.4 1407 674.2 1408 674L1408.2 674.8C1403.6 676.2 1395.8 684.6 1393.2 690.4L1388.4 701.2C1387.2 704.2 1387 709.2 1387.8 711.4L1387 711.6C1386.4 709.4 1383.2 705.6 1380.4 704.2L1375 701.2V745C1375 752.6 1379.2 764.8 1383.2 768.8L1382.8 769.2C1378.8 765.2 1366.6 761 1359 761H1342C1340.2 761 1337.2 762.2 1336.2 763.2L1335.8 762.8C1336.8 761.8 1338 758.8 1338 757V753H1268ZM1272.4 674H1333.6C1322.8 665.4 1312.6 656.2 1303 646C1293.4 656.2 1283.2 665.4 1272.4 674ZM1268 725H1338V703H1268V725Z" fill="white"/>
<path d="M660.2 889.6C655.8 893.4 651.2 897 646.2 900.6C639 905.8 631 917.2 629.2 923.6L628.6 923.4C630.2 917 628.6 902.6 625 894.4L623.8 892C621.4 886.6 613.8 878.8 609.4 877.6L609.6 877C610.2 877.2 610.8 877.2 611.6 877.2C626 877.2 640.4 864.6 649.8 854.8C654.4 850.4 659.8 839.6 659.6 834.8H660.4C660.6 839.4 666.8 849.2 671.8 853L672.6 853.4C677.4 857 685.8 860.4 692.2 861.6C690.6 855.2 687.8 848.4 685 845.6L685.6 845C689.4 848.8 701.2 853 708.6 853H785.6C792.8 853 804.6 848.8 808.4 845L809 845.6C805.2 849.4 801 861.2 801 868.4C801 875.8 805.2 887.6 809 891.4L808.4 892C804.6 888.2 792.8 884 785.6 884H708.6C701.2 884 689.4 888.2 685.6 892L685 891.4C688.8 887.6 693 875.8 693 868.4C693 867 692.8 865.4 692.6 863.8C686.6 865.8 678.8 870.4 674.8 875C670.4 880 666 884.4 661.4 888.4C663.4 893.2 669.6 900.4 674.6 903.2L687 910.6V907.2C687 905.8 685.8 903.4 685 902.6L685.6 902C686.4 902.8 688.8 904 690.4 904H793.6C800.8 904 812.6 899.8 816.4 896L817 896.6C813.2 900.4 809 912.2 809 919.4V921C809 927.6 812.8 938.2 816.2 941.8L815.8 942.2C812.2 938.8 801.6 935 795 935H781V990C781 1027.2 777.8 1030 743 1030C738.6 1030 733.6 1030 725.4 1029.6C719.8 1029.6 708.8 1032 704.6 1036.2L704 1035.8C707.4 1032.2 710.4 1021.2 710 1014.6L709.8 1011.4C709.4 1004.8 705.2 994.8 701.6 991.4L702.2 990.8C710.2 998.8 725.4 999 736 999C742.8 999 743 998.8 743 992V935H694.6C691 935 685.4 937.2 683.6 939L683 938.4C684.8 936.6 687 931 687 927.4V920C683.2 926.4 678.8 932.8 674 939V1016C674 1023.6 678.2 1035.8 682.2 1039.8L681.8 1040.2C677.8 1036.2 665.6 1032 658 1032H654C646.4 1032 634.2 1036.2 630.2 1040.2L629.8 1039.8C633.8 1035.8 638 1023.6 638 1016V970.4C635.6 973.4 633.2 976.2 630.8 978.6C626.2 983.6 622.2 991.8 620.8 996.8L620 996.6C621.4 991.6 622.2 982 620.8 975.4L617 955.8C616.2 952.4 612.4 945.8 610 945L610.2 944.2C614.6 944.2 619.4 942.8 623 939.8C636.6 928.8 658.8 908.4 660.2 889.6Z" fill="white"/>
<path d="M951 662.4C948.8 665.2 947 670.4 947.2 673L946.4 673.2C946.2 670.6 943.8 665.4 941.2 663C933.4 656 925 649 916 642C913.4 640 908.6 638.6 905.4 638.6V637.8C907.8 637.6 912.8 635 915 632.4C917 630 918.8 624.6 918.6 622.2L919.2 622C919.6 624.4 922.4 629.2 925 631.2C934 638.2 942.6 645 950.4 652.2C952.2 654 956 655.6 958.6 656C958.8 655 959 654 959 653.2C959 650 957 645 955.4 643.2L955.8 642.8C957.6 644.4 962.6 646.4 965.8 646.4H979.6V595.4C979.6 592 977.4 586.4 975.6 584.6L976.2 584C978 585.8 983.6 588 987.2 588C990.6 588 996.2 585.8 998 584L998.6 584.6C996.8 586.4 994.6 592 994.6 595.4V646.4H1023.6V584.8C1023.6 581.2 1021.4 575.4 1019.4 573.4L1020 572.8C1022 574.8 1027.8 577 1031.6 577C1035.2 577 1041 574.8 1043 572.8L1043.6 573.4C1041.6 575.4 1039.4 581.2 1039.4 584.8V601.4H1082.4C1085.6 601.4 1090.4 599.4 1092 597.8L1092.6 598.4C1091 600 1089 604.8 1089 608C1089 611.2 1091 616 1092.6 617.6L1092 618.2C1090.4 616.6 1085.6 614.6 1082.4 614.6H1039.4V646.4H1089.6C1092.8 646.4 1097.8 644.4 1099.6 642.8L1100 643.2C1098.4 645 1096.4 650 1096.4 653.2C1096.4 656.4 1098.4 661.4 1100 663.2L1099.6 663.6C1097.8 662 1092.8 660 1089.6 660H1078.2C1079.8 666.4 1086.2 671.8 1092.8 672.4V673.2C1089.2 673.2 1084.2 675.2 1081.6 677.4C1071.6 685.8 1059.4 694.4 1046.6 701.6C1043.8 703.2 1040.2 707.6 1039.4 710.2C1041 712.4 1043.4 714.6 1045.4 715.6C1061 723.6 1075.8 732.8 1088.6 742.2C1091.6 744.4 1096.4 745.6 1100.2 745.6L1100.4 746.4C1097.6 746.8 1092.4 750.4 1090.4 753.4C1088.2 756.4 1086.8 762.4 1087.2 765L1086.4 765.2C1086 762.4 1082.6 757.2 1079.6 755C1067.6 746 1052.8 736.8 1036.8 728.4C1034.4 727.2 1030.4 726.4 1027.4 726.4C1026.4 726.4 1025.4 726.6 1024.6 726.8L1024.4 726C1027.2 725.2 1032.2 721.8 1034.4 718.6C1036.2 715.8 1037.6 709.8 1037 707.2L1037.8 707C1038 707.6 1038.2 708.4 1038.8 709C1038.8 701.2 1033 694 1025.4 692.4L1025.6 691.6C1026.2 691.8 1026.8 691.8 1027.6 691.8C1030.6 691.8 1035 690.8 1037.6 689.4C1049.8 682.4 1061.6 674.4 1071.2 666.4C1072.8 665 1074.6 662.4 1075.8 660H976C977.2 662 979.2 664.2 980.8 665.2C991.4 672 1001.8 680 1011.6 688.2C1014.4 690.6 1020 692.6 1022.6 692.4V693.2C1020 693.4 1014.6 696.2 1012.2 698.8C1009.8 701.4 1007.8 707 1008 709.6H1007.2C1007 707 1004.2 701.6 1001.6 699.4C992.2 691.2 982 683.4 971.6 676.6C968.4 674.6 963.8 674 960.2 674L960 673.2C962.8 672.8 967.8 669.8 970 667C971.4 665.4 972.6 662.6 973.2 660H965.8C962.6 660 957.6 662 955.8 663.6L955.4 663.2C956.4 662.2 957.4 660 958.2 657.6C955.6 658.6 952.6 660.6 951 662.4ZM925.4 598.2C922.8 596 918 594.6 914.8 594.6V593.8C917.2 593.6 922.2 591 924.4 588.4C926.4 585.8 928.2 580.6 928 578.2L928.8 578C929 580.4 931.8 585.2 934.4 587.2C942.2 593.4 949.6 599.6 956.4 605.6C958.8 607.8 964 609.8 966.6 609.6V610.4C964.2 610.6 959.2 613.2 957 615.8C954.8 618.4 953 623.6 953.2 626.2H952.4C952.2 623.6 949.6 618.6 947.2 616.4C940.4 610.4 933.2 604.2 925.4 598.2ZM945.8 682.6L946.6 682.2C949.2 688.6 955.8 691.8 962.4 691.8C963.6 691.8 964.6 691.6 965.2 691.4L965.6 692C963.2 693 959.6 697 958.4 700.2C952 717.6 943 735.6 933.2 750.8C931.2 753.6 930 759.4 930.6 762L929.8 762.2C928.2 755.2 920.6 750 913.6 750C913 750 912.4 750 912 750.2L911.8 749.4C914.4 748.8 919 745.4 920.8 742.4C930.4 727.8 939 710.8 945.6 693.8C946.8 690.6 946.8 685 945.8 682.6ZM956.6 753.6C954.8 750.4 950.4 746.6 947.8 745.8L948 745C949 745.2 950.4 745.4 952 745.4C954.6 745.4 957.8 745 959.8 744C976.2 736.8 991.8 727.4 1003.2 718.6C1006 716.6 1009 711.4 1009.4 708.8L1010.2 709C1009.8 711.6 1010.8 717.2 1012.8 720.2C1014.6 723 1019.4 726.6 1022 727L1021.8 727.8C1018.2 727.8 1014 729 1011.2 731.2C999.2 740.8 982.8 750.2 966.8 757.2C963.8 758.6 959.6 762.6 958.8 765L958 764.8C958.8 762.4 958 756.4 956.6 753.6Z" fill="white"/>
<path d="M109.2 490.2L108.8 489.8C112.8 485.8 117 473.6 117 466V447.4C103.2 457.2 86 466.8 66 475.4C59.4 478.2 50.6 486.4 48.8 491.4L48 491.2C49.8 486.2 48.8 473.8 45.8 467.2L45 465.6C41.6 458 32.2 448.4 26.6 446L26.8 445.2C29.6 446.4 34 446.8 38.8 446.8C44.2 446.8 50 446.2 54.2 444.8C72.2 438.4 88 431.4 100.8 424H72C64.4 424 52.2 428.2 48.2 432.2L47.8 431.8C51.8 427.8 56 415.6 56 408V360C56 353.4 53 343.6 49.6 338.4C44.4 339.8 39.4 342 37.2 344.2L36.8 343.8C40.2 340.2 44 329.6 44 323C44 316.4 40.2 305.8 36.8 302.2L37.2 301.8C40.8 305.2 51.4 309 58 309H117V302.4C117 299.4 115 294.6 113.4 293L114 292.4C115.6 294 120.4 296 123.6 296H148.6C151.6 296 156.4 294 158 292.4L158.6 293C157 294.6 155 299.4 155 302.4V309H214C220.6 309 231.2 305.2 234.8 301.8L235.2 302.2C231.8 305.8 228 316.4 228 323C228 329.6 231.8 340.2 235.2 343.8L234.8 344.2C232.6 342 227.6 339.8 222.4 338.4C219 343.6 216 353.4 216 360V408C216 415.6 220.2 427.8 224.2 431.8L223.8 432.2C219.8 428.2 207.6 424 200 424H171.2C184 431.4 199.8 438.4 217.8 444.8C222 446.2 227.8 446.8 233.2 446.8C238 446.8 242.4 446.4 245.2 445.2L245.4 446C239.8 448.4 230.4 458 227 465.4L226.2 467.2C223.2 473.8 222.2 486.2 224 491.2L223.2 491.4C221.4 486.4 212.6 478.2 206 475.4C186 466.8 168.8 457.2 155 447.4V466C155 473.6 159.2 485.8 163.2 489.8L162.8 490.2C158.8 486.2 146.6 482 139 482H133C125.4 482 113.2 486.2 109.2 490.2ZM117 337H58C56 337 53.6 337.4 51 338C56.4 341.2 65.8 344 72 344H117V337ZM155 344H200C206.2 344 215.6 341.2 221 338C218.4 337.4 216 337 214 337H155V344ZM90 368V375H117V368H90ZM182 368H155V375H182V368ZM90 395V402H117V395H90ZM155 402H182V395H155V402Z" fill="white"/>
<path d="M172.2 613.8C172 623 171.8 631.6 171.4 639.6H217.8C223.2 639.6 232 636.4 235 633.6L235.4 634C232.6 637 229.4 645.8 229.4 651.2V654.6C229.4 658.4 231.8 664.6 233.8 666.6L233.2 667.2C231.2 665.2 225 662.8 221.2 662.8H213V747.2C213 753 216.4 762.4 219.6 765.6L219 766.2C215.8 763 206.4 759.6 200.6 759.6C194.6 759.6 185.2 763 182 766.2L181.4 765.6C184.6 762.4 188 753 188 747.2V662.8H169.8C166 704.4 158 728.6 144.4 749.2C140.6 754.8 138.2 765 138.8 770H138C137.4 765 132.4 755.4 127.6 750.8L127.2 750.2C123.6 746.8 116.4 743.6 111.4 743.6L111.2 742.8C112.4 742.6 114 741.8 115.8 740.8C115.2 737.2 112.6 731.4 109.8 728.2C107.6 726.2 105.6 724 103.4 721.8V748.6C103.4 754.6 107 764.4 110.2 767.6L109.6 768.2C106.4 765 96.6 761.4 90.6 761.4C84.4 761.4 74.6 765 71.4 768.2L70.8 767.6C74 764.4 77.6 754.6 77.6 748.6V721.8C73.2 729.2 68.2 736 62.6 742.4C58.4 747.4 54.8 756.6 54.6 761.4H53.8C54 756.4 51.2 746.6 47.6 741.2C44.8 737.2 37.2 731.8 33.4 731.6V730.8C37.2 731 46 726.8 49.6 723.4C58.4 714.8 65.4 706 70.8 696.6H56.2C51.2 696.6 43.2 699.6 40.6 702.2L40 701.6C42.6 699 45.6 691 45.6 686C45.6 681 42.6 673 40 670.4L40.6 669.8L40.2 669.4C42.8 666.8 45.6 659.2 45.6 654.2V653.2C45.6 649 43 642 40.6 639.6L41.2 639C43.6 641.4 50.6 644 55 644H64.2C62 635 59.4 625.8 56.6 617H51.6C49.2 617 45.6 618.6 44.4 619.8L43.8 619.2C45 618 46.6 614.4 46.6 612V606.2C46.6 601.2 43.6 593.2 41 590.6L41.6 590C44.2 592.6 52.2 595.6 57.4 595.6H77.6V586C77.6 581.4 75 574.2 72.6 571.8L73 571.4C75.4 573.8 82.6 576.4 87.2 576.4H93.8C98.4 576.4 105.6 573.8 108 571.4L108.4 571.8C106 574.2 103.4 581.4 103.4 586V595.6H129C133.6 595.6 140.6 593.2 143.8 590.8C143 589.4 142.2 588.2 141.4 587.6L142 587C145.8 590.6 155.6 591.6 160.8 591.6C178.8 589.6 195.2 586.6 209.4 582.4C214.8 581 222.6 575.4 224.8 571.8L225.4 572.2C223.4 575.8 222.6 585 224 590.4C225.6 596 231.2 604.2 235 606.4L234.6 607C232.2 605.6 227.4 604.8 222.8 604.8C220.2 604.8 217.8 605 215.8 605.6C202.8 609 188.4 611.8 172.2 613.8ZM148 605.8C148 601.8 146.4 595.8 144.2 591.8C142 595 139.6 601.8 139.6 606.2V612.2C139.6 614.4 141 618 142.2 619.2L141.8 619.6C140.6 618.4 137 617 134.8 617H130C127.6 626.4 124.6 635.6 121 644H130C134.2 644 141 641.4 143.2 639.2L143.8 639.8C141.6 642 139 648.8 139 653V654.2C139 659.2 141.8 666.8 144.4 669.4L143.8 670C141.2 667.4 133.6 664.6 128.8 664.6H103.4V675.4H126C131 675.4 139 672.4 141.6 669.8L142.2 670.4C139.6 673 136.6 681 136.6 686C136.6 689.6 138 694.6 139.8 698C145.4 677.4 147.6 649.8 148 605.8ZM107.2 617H79.6C82.2 625.8 84.6 635 86.6 644H97.8C101.4 635.6 104.6 626.6 107.2 617ZM77.6 664.6H56C51 664.6 43.4 667.4 40.8 670C43.6 672.6 51.4 675.4 56.2 675.4H77.6V664.6ZM133.4 716.6C135.6 711.6 137.6 706.4 139.2 700.4C135.6 698.4 130 696.6 126 696.6H104.8C110.4 701.2 115.8 706 121.6 711C124.2 713.4 129.4 715.6 133.4 716.6ZM132 719.8C128.6 721.4 124.8 724.2 122.8 726.6L121.6 728C119.2 731 117 736.6 116.6 740.2C123.8 735 128.2 727.8 132 719.8Z" fill="white"/>
<path d="M439.8 293.6L440.4 294.2C438.4 296.2 436 302.4 436 306.2V314.4H506.2C510.4 314.4 517 312 519.2 309.8L519.6 310.2C517.4 312.4 515 319 515 323.2C515 327.4 517.4 334 519.6 336.2L519.2 336.6C517 334.4 510.4 332 506.2 332H343.8C339.6 332 333 334.4 330.8 336.6L330.4 336.2C332.6 334 335 327.4 335 323.2C335 319 332.6 312.4 330.4 310.2L330.8 309.8C333 312 339.6 314.4 343.8 314.4H414V306.2C414 302.4 411.6 296.2 409.6 294.2L410.2 293.6C412.2 295.6 418.4 298 422.2 298H427.8C431.6 298 437.8 295.6 439.8 293.6ZM416 410H381.8C385 419 394 424.6 403.4 424.6L403.6 425.4C400.2 425.8 393.6 429.6 390.6 433.2C380.6 445.8 368.2 457.6 354.6 467.8C351 470.4 346.8 477 346.4 480.2H345.6C346 476.8 343.2 469.4 340.4 466C337.2 462.4 330.6 458.8 327.2 458.4V457.6C332 457.6 338.2 456 342 453C353 444.6 377.8 424.6 380.2 410H365.8C360.8 410 352.6 413 349.8 415.6L349.4 415.2C352 412.4 355 404.2 355 399.2V357C355 350.8 351.4 341 348.2 337.8L348.8 337.2C352 340.4 361.8 344 368 344H482C488.2 344 498 340.4 501.2 337.2L501.8 337.8C498.6 341 495 350.8 495 357V397C495 403.2 498.6 413 501.8 416.2L501.2 416.8C498 413.6 488.2 410 482 410H466C467.4 413.4 470.2 417.6 473 419.8C486 430.2 498 441.4 509.6 453.6C512.8 457 519.8 460.4 523.2 460.4V461.2C519.8 461.2 512.4 464.4 509.2 467.8C505.8 471 502.6 478 502.6 481.4H501.8C501.8 478 498.8 470.8 495.6 467.4C484.2 455.6 472.2 444.4 459.6 434.2C456 431.4 449.4 429 444.8 429V428.2C448.4 428 455.2 424.4 458.6 421C460.8 418.6 463.2 413.6 464 410H438V449C438 475.4 435.2 478 410 478C405.4 478 399.6 477.8 390.6 477.4C386.8 477.4 379.8 479.2 377.2 481.8L376.6 481.2C378.8 479 381.2 471.8 381 467.8C380.8 463.2 377.8 456.2 375.4 453.8L376 453.2C378.4 455.6 385.4 458.6 389.8 459C397.6 459.4 403 459.6 406.6 459.6C416 459.6 416 459.4 416 449V410ZM376.6 360V393.6H473.4V360H376.6Z" fill="white"/>
<path d="M1055.2 331.6C1062.8 329.8 1073.8 322.6 1076.8 317.6L1077.4 318C1074 323.8 1072.6 336.2 1074.8 346.6C1076.2 353.6 1082.8 364.2 1087.4 367.2L1087 367.8C1082 365 1068.6 364 1062.6 365.6C1000 381.2 973 400.2 973 414C973 427.2 982.4 434 1007 434C1024.2 434 1040.8 433 1058.2 430.6C1066.2 429.6 1078.4 423.4 1082.2 418.8L1082.8 419.2C1078.6 424.4 1076 437.4 1077.2 447C1078 454 1083.4 465.2 1087.6 468.6L1087.2 469.2C1082.4 465.4 1069 463.4 1064 464.4C1045.4 466.8 1027.6 468 1007 468C957 468 933 449.8 933 416C933 399.2 941.6 383.4 962 368.8C958.2 352.4 954.8 336 951.8 320C950.4 312.2 943.8 301 939 297.6L939.6 297C953.2 306.6 985.4 300.8 993.8 288.8L994.4 289.4C991.4 293.8 989.4 306.4 990.8 313.4C993 325.4 995.6 337.6 998.4 349.6C1014 343.2 1032.8 337.2 1055.2 331.6Z" fill="white"/>
<path d="M85.6 217V223C85.6 225.8 87.4 230.2 88.8 231.8L88.4 232.2C86.8 230.8 82.4 229 79.6 229H74.8C69.8 229 61.6 232 58.8 234.6L58.4 234.2C61 231.4 64 223.2 64 218.2V70C64 63.8 60.4 54 57.2 50.8L57.8 50.2C61 53.4 70.8 57 77 57H195C201.2 57 211 53.4 214.2 50.2L214.8 50.8C211.6 54 208 63.8 208 70V218.2C208 223.2 211 231.4 213.6 234.2L213.2 234.6C210.4 232 202.2 229 197.2 229H192.4C189.6 229 185.2 230.8 183.6 232.2L183.2 231.8C184.6 230.2 186.4 225.8 186.4 223V217H85.6ZM85.6 126H186.4V75.4H85.6V126ZM85.6 199H186.4V144H85.6V199Z" fill="white"/>
<path d="M791 689H655C647.4 689 635.2 693.2 631.2 697.2L630.8 696.8C634.8 692.8 639 680.6 639 673V667C639 659.4 634.8 647.2 630.8 643.2L631.2 642.8C635.2 646.8 647.4 651 655 651H791C798.6 651 810.8 646.8 814.8 642.8L815.2 643.2C811.2 647.2 807 659.4 807 667V673C807 680.6 811.2 692.8 815.2 696.8L814.8 697.2C810.8 693.2 798.6 689 791 689Z" fill="white"/>
<path d="M390 106H350.6C343.2 106 331.4 110.2 327.6 114L327 113.4C330.8 109.6 335 97.8 335 90.4C335 83.2 330.8 71.4 327 67.6L327.6 67C331.4 70.8 343.2 75 350.6 75H406.6V61C406.6 54.4 402.8 43.8 399.4 40.2L399.8 39.8C403.4 43.2 414 47 420.6 47H429.4C436 47 446.6 43.2 450.2 39.8L450.6 40.2C447.2 43.8 443.4 54.4 443.4 61V75H499.6C506.8 75 518.6 70.8 522.4 67L523 67.6C519.2 71.4 515 83.2 515 90.4C515 97.8 519.2 109.6 523 113.4L522.4 114C518.6 110.2 506.8 106 499.6 106H460C471.4 126.6 489.6 149.4 514 172C517.8 175.6 526.6 179.8 532 179.8L532.2 180.6C528 181 520 187.8 517.2 192.4L514.6 197C509.4 205.6 505.8 221.2 506.6 228.6L505.8 228.8C505 221.2 498.6 207.4 491.6 200.2C487 195.6 482.4 190.6 478 185.4V196.2C478 201.2 481 209.4 483.6 212.2L483.2 212.6C480.4 210 472.2 207 467.2 207H443.4V221C443.4 227.6 447.2 238.2 450.6 241.8L450.2 242.2C446.6 238.8 436 235 429.4 235H420.6C414 235 403.4 238.8 399.8 242.2L399.4 241.8C402.8 238.2 406.6 227.6 406.6 221V207H382.8C377.8 207 369.6 210 366.8 212.6L366.4 212.2C369 209.4 372 201.2 372 196.2V185.4C367.6 190.6 363 195.6 358.4 200.2C351.4 207.4 345 221.2 344.2 228.8L343.4 228.6C344.2 221.2 340.6 205.6 335.6 197L332.8 192.4C330 187.8 322 181 317.8 180.6L318 179.8C323.4 179.8 332.2 175.6 336 172C360.4 149.4 378.6 126.6 390 106ZM406.6 177V138C397.8 152 388.6 165.2 379 177H406.6ZM443.4 177H471C461.4 165.2 452.2 152 443.4 138V177Z" fill="white"/>
<path d="M733.4 198.4C732.2 193.2 727.2 186.2 723.6 184.4L724 183.6C727.4 185.6 738 185.2 742.4 183.8C764 176.8 776 158.8 776 131C776 103 757.2 82.4 730.2 78.8C716.8 183.2 695.6 205.6 670 205.6C649.6 205.6 626.6 178.8 626.6 141.6C626.6 90 665 54.4 722 54.4C767.6 54.4 801.4 86.2 801.4 131C801.4 173 780.6 200.8 748 208.4C742.2 209.8 734.4 215.4 732.2 219.4L731.4 219C733.6 215 734.6 204.4 733.4 198.4ZM703.8 80C671.6 86.2 652 109.4 652 141.6C652 163.4 663.2 180.4 670 180.4C678.4 180.4 693.4 159 703.8 80Z" fill="white"/>
<path d="M779.6 446.8L786.6 444C793.6 444.2 803.8 445.2 808.2 446.8C809.8 447.2 810.8 448.2 810.8 449.8C810.8 452.8 808.6 455.6 806.8 456.4C801.6 455.8 790.2 455.4 784.2 455.4C770.2 455.2 676.8 456.4 666.4 457C661.4 457.4 651.6 459.2 647 460.8C639.8 458.6 632.8 455 628 451.2C627.4 450.6 627.2 450.2 627.4 449.6L628.8 446.8C635.2 448 644.2 448.8 650.2 448.8C656.2 448.8 684.2 448.6 713 448.2V400L683.4 400.4C671.6 400.4 667 395.6 667 384.6V337.4C663.4 335 658.2 333 652.8 332L653.8 327.8C654 327.2 654.6 326.8 655.8 326.8C661.6 326.8 674.4 327.6 679.8 328.6C698 328.4 740 327.6 751.2 327L757.2 324.2C762.6 324 771.4 324.4 775.6 325C777.2 325.2 778 326.4 778 327.6C778 330.4 777.2 332.6 776.4 333.6C775.6 334.4 774.6 334.6 773.6 334.6L679.6 336.4V388C679.6 391.6 680.8 392.8 684.2 392.8C698.2 393 740.2 392.4 752.8 391.6L758.8 388.4C764.6 388.4 773.6 389 777.2 389.8C778.8 390.2 779.6 391 779.6 392.4C779.6 395.4 778.8 397.4 778 398.2C777.2 398.8 776.4 399 775.4 399L725.2 399.8V448C750.4 447.8 773.6 447.2 779.6 446.8Z" fill="white"/>
<path d="M1014.8 919C1014.8 944.2 995.6 961.8 969.6 961.8C943.4 961.8 923.8 944.2 923.8 919C923.8 893.6 943.4 876.4 969.6 876.4C995.6 876.4 1014.8 893.6 1014.8 919ZM1002.2 919C1002.2 898.2 988 885.8 969.6 885.8C951.2 885.8 937 898.2 937 919C937 939.8 951.2 952 969.6 952C988 952 1002.2 939.8 1002.2 919ZM1060.6 1030.4H1053.2C1052.8 1021.8 1052.4 1004 1052.4 995.4V853.8C1048.8 849.6 1042.4 846.2 1035.2 843.8L1036.6 839.6C1036.8 838.8 1037.2 838.6 1038.6 838.6C1045.4 838.8 1057.4 841.4 1062.8 843.4C1064.6 844 1065.2 845.4 1065.2 847.2L1064.6 857.4V990.8C1064.6 1002 1063 1019.4 1060.6 1030.4Z" fill="white"/>
<path d="M1356.6 445L1365.2 441.2C1373.6 441.6 1385.6 443.2 1390.6 445.2C1392.6 445.8 1394 447.4 1394 449.6C1394 454.6 1390.6 459.2 1388 460.6C1382.8 460 1369 459.6 1362.6 459.6C1348.8 459.4 1266 460.4 1254.2 461.2C1248.8 461.6 1236.8 463.6 1231.4 465.2C1223.4 462.2 1214.6 456.2 1209 451C1208.2 450.2 1208 449.2 1208.4 448.2L1210.2 444.8C1218 446 1228.4 446.8 1235.8 447H1260L1258.6 419.4C1256.6 417 1252.6 414.6 1248.6 413.4L1250 407.2C1250.2 406.6 1251 406 1253.2 406C1260.2 406 1272.4 407.4 1278 409C1279.8 409.6 1280.4 410.8 1280.2 413L1279.6 421.8L1279 446.8L1302.6 446.4L1303.6 412C1301.8 409 1297.8 405.6 1293.4 403.4L1295.6 397.6C1296.2 396.8 1296.8 396.2 1298.8 396.4C1306.2 397.2 1318 400 1323.4 402.4C1325.2 403.4 1325.8 404.6 1325.6 406.4L1324.2 415.6L1322.4 446C1338.6 445.8 1352 445.4 1356.6 445ZM1345 422.2L1338.6 421C1337.2 420.8 1336.6 420 1336.8 417.4C1338.8 407 1340 392.8 1340.8 378.4C1321.2 381.8 1289.4 385 1268.4 386.2C1263.2 386.6 1255.2 387.8 1250.8 389.2C1243.4 386 1235.6 380.8 1230.2 375.6C1229.4 374.8 1229.2 374 1229.6 373.2L1231.4 369.8C1238.6 370.8 1247.2 371.2 1254.4 371.2C1278 371 1321.4 368 1341.4 365C1341.8 355.2 1341.8 345.8 1341.8 337.8C1323.8 338 1286.8 338.8 1277.4 339.6C1272 340 1262.8 341.4 1257.8 343C1250.8 339.6 1243.6 334.2 1238.8 329.4C1237.6 328.4 1237.6 327.4 1238 326.4L1239.6 323.4C1246.4 324.6 1255.2 325.2 1261.2 325.2C1271.4 325.2 1328.2 324.2 1343.6 323.2L1352.8 318.8C1354 318.2 1355.8 318.2 1357.2 318.8C1360.8 320.6 1367.6 324.4 1370.4 326.4C1371.4 327.2 1371.6 328.2 1371 329.8L1367.6 338.8C1366.8 363 1358.8 398 1348.8 420.4C1348 421.8 1346.6 422.4 1345 422.2Z" fill="white"/>
<path d="M1356.6 983.2L1365.2 979.2C1373.6 979.6 1385.6 981.4 1390.6 983.2C1392.6 983.8 1394 985.4 1394 987.8C1394 992.8 1390.6 997.4 1388 998.6C1382.8 998 1369 997.6 1362.6 997.6C1348.8 997.6 1266 998.4 1254.2 999.2C1248.8 999.6 1236.8 1001.6 1231.4 1003.2C1223.4 1000.2 1214.6 994.4 1209 989C1208.2 988.4 1208 987.2 1208.4 986.2L1210.2 982.8C1218 984.2 1228.4 985 1235.8 985.2C1249 985.4 1342.4 984.2 1356.6 983.2ZM1245.6 931.8V885.6C1242.4 882.4 1237 879.4 1231.2 877.6L1232.6 871.2C1233 870.6 1233.6 870 1235 870C1243 870 1262 871 1269.6 872.4C1288.4 872.2 1320.4 871.6 1331.4 871L1338 867.4C1344.6 867.4 1354.4 867.8 1359.4 869C1361.8 869.4 1363 870.8 1363 873C1363 878 1361.8 881.6 1360.4 883.2C1359.4 884.4 1358.2 884.6 1356.4 884.6L1269.4 886V931.4C1269.4 934.8 1270.8 936.2 1274.2 936.2C1288 936.4 1321.2 935.8 1334.2 935.2L1340.2 931.8C1346.8 931.8 1356.6 932.4 1361.2 933.6C1363.4 934 1364.8 935.8 1364.8 937.8C1364.8 942.8 1363.4 946.6 1362 947.6C1361 948.6 1359.6 949 1358.2 949L1265.6 950.4C1251.6 950.4 1245.6 944 1245.6 931.8Z" fill="white"/>
<path d="M411.6 873.2L419.4 869.4C420.6 868.8 422.6 868.8 423.8 869.4C427.2 870.8 433.8 874.4 436.4 876C437.4 876.8 437.4 878 436.8 879.2L432.8 886.2C422.4 923.2 387.4 962.4 343.6 985.6C342.4 986.2 341.4 986.2 340.6 985.8L337 982.4C336.2 981.6 336 980.8 337 979.6C371.2 953 396.4 917.6 406.2 886.2C395.6 886.2 379.6 886.4 375.2 886.8C370.8 887 363 888.4 358.6 890C352.2 887 345.4 882.4 340.8 878.2C340 877.2 339.8 876.6 340.2 875.6L341.8 872.8C348 873.8 356 874.4 361.8 874.4C369.2 874.4 401.6 873.8 411.6 873.2ZM492.2 921.6L498.6 917.4C504.4 917.2 513 917.6 516.6 918.4C519 919 520.6 920.8 520.8 923C521.2 927.6 520 931.8 518.4 933.4C517.2 934.8 514.6 935.6 512.6 935.6L481.2 936.4V979.6C481.2 992.8 478.4 1017.4 473.6 1031H460.6C459.2 1023.6 458.2 996.2 458.2 986.8V857.6C455.2 853 449 848.6 441.8 845.8L444.2 838.8C444.6 838 445.2 837.4 447.2 837.4C456.6 837.8 472 840.8 479.2 843.8C481.4 844.8 482.2 846.6 482.2 849.2L481.2 861.4V922.2L492.2 921.6Z" fill="white"/>
<line y1="252.5" x2="1440" y2="252.5" stroke="white"/>
<line y1="535.5" x2="1440" y2="535.5" stroke="white"/>
<line y1="812.5" x2="1440" y2="812.5" stroke="white"/>
<line x1="282.5" y1="2.18557e-08" x2="282.5" y2="1072" stroke="white"/>
<line x1="571.5" y1="2.18557e-08" x2="571.5" y2="1072" stroke="white"/>
<line x1="860.5" y1="2.18557e-08" x2="860.5" y2="1072" stroke="white"/>
<line x1="1149.5" y1="2.18557e-08" x2="1149.5" y2="1072" stroke="white"/>
<path d="M1392 42.4L1392.6 43C1389 46.6 1385 57.6 1385 64.4C1385 71.4 1389 82.4 1392.6 86L1392 86.6C1389.4 84 1382.8 81 1376.6 79.8C1372.8 84.2 1369 95.8 1369 103V144.6C1369 150.4 1372.4 159.8 1375.4 163L1375 163.4C1371.8 160.4 1362.4 157 1356.6 157H1344.2C1356.6 166 1367.8 175.4 1378.6 185.4C1383.8 190 1394.2 194.8 1401.2 194.8V195.6C1395.8 196 1384.4 202 1379.4 207.4L1378 209C1372.8 214.6 1367.8 226.4 1368.2 232.2H1367.4C1367 226.4 1360.6 215 1355 210C1347 202.8 1338.6 195.8 1330 189C1326.2 186 1319.6 183.2 1314 182V183C1314 220.2 1310.8 223 1276 223C1272 223 1267.4 223 1260 222.6C1255.2 222.6 1246 224.8 1242.6 228.2L1242.2 227.6C1245 224.6 1247.6 215.4 1247.2 210L1246.4 198C1241 202.8 1235.2 207.6 1229 212.2C1223.4 216.4 1217 226.6 1216.4 231.8L1215.6 231.6C1216.2 226.4 1212 214.8 1207.6 209.4L1206.6 208C1201.6 201.8 1190.4 195 1184.4 194.4L1184.6 193.6C1192.4 193.6 1203.2 189.8 1209.4 185.2C1221.2 176 1231.6 166.8 1241.2 157H1229.2C1223.4 157 1214.2 160.4 1211.2 163.4L1210.6 162.8C1213.6 159.8 1217 150.6 1217 144.8V103C1217 95.8 1213.2 84.2 1209.4 79.8C1203.2 81.2 1196.6 84 1194 86.6L1193.4 86C1197 82.4 1201 71.4 1201 64.4C1201 57.6 1197 46.6 1193.4 43L1194 42.4C1197.6 46 1208.6 50 1215.6 50H1274V43.4C1274 40.4 1272 35.6 1270.4 34L1271 33.4C1272.6 35 1277.4 37 1280.6 37H1305.6C1308.6 37 1313.4 35 1315 33.4L1315.6 34C1314 35.6 1312 40.4 1312 43.4V50H1370.6C1377.4 50 1388.4 46 1392 42.4ZM1370.6 79H1215.6C1214 79 1212 79.2 1210.2 79.6C1214.8 83.4 1226 87 1233 87H1353C1360 87 1371.2 83.4 1375.8 79.6C1374 79.2 1372.2 79 1370.6 79ZM1254 112V131H1332V112H1254ZM1269 192C1276 192 1276 192 1276 185V157H1249L1260.4 168.4C1264 172 1271.8 175.8 1275.6 175.6V176.4C1271.8 176.6 1264.2 180.2 1260.8 183.8C1258.4 186.4 1256 189 1253.4 191.4C1261.8 191.8 1266.2 192 1269 192ZM1314 157V178.4C1319 176 1324.6 172.2 1327.8 168.4L1337.4 157H1314Z" fill="white"/>
</svg>
