<svg xmlns="http://www.w3.org/2000/svg" width="440" height="440" viewBox="0 0 440 440"><g transform="matrix(.125 0 0 -.125 -98.285 474.197)"><circle cx="2546.2803" cy="-2033.5739" r="1760" style="fill:#fff;stroke-width:8;fill-opacity:1" transform="scale(1 -1)"/><g transform="matrix(8 0 0 -8 2538.28 2041.574)"><circle r="199" fill="#b0bf1e"/><circle r="109" fill="#fff"/><path d="M-46 51c26 21 92 24 92-30C46-22-7-8-7-28c0-12 22-13 35-2l13-25C2-76-41-64-41-24c0 46 53 28 53 50 0 15-26 16-44-1z"/></g></g></svg>